<svg xmlns="http://www.w3.org/2000/svg" xmlns:xlink="http://www.w3.org/1999/xlink" width="658px" height="658px" viewBox="0 0 658 658"><title>favicon</title><desc>Created with Sketch.</desc><defs><linearGradient x1="0%" y1="28.714305%" x2="100%" y2="28.714305%" id="linearGradient-1"><stop stop-color="#5B70F1" offset="0%"></stop><stop stop-color="#BE21C0" offset="100%"></stop></linearGradient><linearGradient x1="0%" y1="65.433055%" x2="100%" y2="65.433055%" id="linearGradient-2"><stop stop-color="#1BDFF4" offset="0%"></stop><stop stop-color="#5674F2" offset="100%"></stop></linearGradient></defs><g id="favicon" stroke="none" stroke-width="1" fill="none" fill-rule="evenodd"><g id="Group-2" transform="translate(65.000000, 0.000000)"><polyline id="Fill-13" fill="#C16BEC" points="351 564.711416 264.851905 658 180 579.297397 266.148095 486 351 564.711416"></polyline><path d="M263,172 L263.264521,288.259867 L377.317101,289.285975 C386.540062,288.940991 394.272888,291.249735 400.118799,295.221483 C405.135878,298.60941 408.909709,303.209207 411.061146,308.286675 C412.921609,312.665328 413.52119,317.450886 412.577732,321.997608 C411.563735,326.827395 408.565832,331.940246 403.196059,336.831953 L399.730835,340.458716 L266.782648,485.007334 L351.623307,564 L481.935103,422.335101 C506.11231,400.079161 520.369985,373.47995 526.110088,345.943089 C532.044172,317.459731 528.658305,288.463319 517.618968,262.501004 C506.897055,237.237504 488.856732,214.848877 465.146845,198.784971 C440.299519,181.960329 409.332943,172.035383 374.389736,173.070337 L263,172 Z" id="Path" fill="url(#linearGradient-1)"></path><path d="M266,486 L154.608342,484.920841 C119.664533,485.964618 88.7062404,476.039895 63.8496677,459.215633 C40.1393718,443.15209 22.0987376,420.755122 11.3766402,395.492192 C0.345929886,369.530463 -3.04881311,340.543551 2.89419151,312.060836 C8.62557579,284.524596 22.8834964,257.925986 47.0611205,235.670548 L177.375164,94 L262.217286,172.999729 L129.266806,317.545085 L125.810341,321.171766 C120.431657,326.054518 117.433702,331.176099 116.419688,336.005777 C115.476214,340.552396 116.084622,345.337846 117.9363,349.707555 C120.087774,354.784908 123.86167,359.384601 128.878835,362.781298 C134.724847,366.752956 142.457807,369.052803 151.680927,368.707826 L265.735475,369.742757 L266,486 L266,486 Z" id="Path" fill="url(#linearGradient-2)"></path><polyline id="Fill-15" fill="#7FC9FF" points="178 93.297397 264.148095 0 349 78.7114163 262.860723 172 178 93.297397"></polyline></g></g></svg>